<svg width="1440" height="1024" viewBox="0 0 1440 1024" fill="none" xmlns="http://www.w3.org/2000/svg">
<rect width="1440" height="1024" fill="#1E1E1E"/>
<g clip-path="url(#clip0_0_1)">
<rect width="1440" height="1024" fill="white"/>
<path d="M0 -135H1440V115C1440 115 1390 177 1314.5 177C1239 177 1180.25 115 1180.25 115C1180.25 115 1139 177 1049 177C959 177 920.5 115 920.5 115C920.5 115 851.5 190.709 735 188C618.5 185.291 551.5 115 551.5 115C551.5 115 513 177 413 177C313 177 275.75 115 275.75 115C275.75 115 226.5 177 130 177C33.5 177 0 115 0 115V-135Z" fill="#F7F9F9"/>
</g>
<defs>
<clipPath id="clip0_0_1">
<rect width="1440" height="1024" fill="white"/>
</clipPath>
</defs>
</svg>
