<svg xmlns="http://www.w3.org/2000/svg" style="display: none;">

<symbol id="cloud" viewBox="0 0 1440 237">
<path d="M1439.5 -191.5V121.915C1439.45 121.97 1439.37 122.041 1439.29 122.126C1439.05 122.358 1438.69 122.701 1438.2 123.139C1437.23 124.014 1435.77 125.267 1433.81 126.772C1429.88 129.784 1423.93 133.806 1415.9 137.829C1399.84 145.874 1375.42 153.931 1342 153.931C1308.58 153.931 1283.28 145.874 1266.34 137.824C1257.87 133.799 1251.49 129.776 1247.23 126.762C1245.1 125.255 1243.5 123.999 1242.43 123.123C1241.9 122.685 1241.5 122.341 1241.23 122.108C1241.1 121.992 1241 121.903 1240.94 121.844C1240.9 121.814 1240.88 121.792 1240.86 121.777C1240.86 121.77 1240.85 121.764 1240.85 121.761C1240.84 121.759 1240.84 121.758 1240.84 121.757H1240.84L1240.25 121.205L1240.02 121.978L1240.02 121.979C1240.02 121.981 1240.02 121.984 1240.02 121.987C1240.02 121.994 1240.01 122.005 1240.01 122.02C1240 122.049 1239.99 122.094 1239.97 122.153C1239.93 122.273 1239.87 122.451 1239.78 122.686C1239.62 123.154 1239.36 123.845 1239 124.726C1238.27 126.488 1237.1 129.011 1235.39 132.041C1231.95 138.102 1226.28 146.192 1217.35 154.285C1199.51 170.462 1168.64 186.689 1116.5 186.689C1064.36 186.689 1027.83 170.459 1004.35 154.244C992.601 146.135 984.113 138.028 978.564 131.951C975.79 128.913 973.751 126.382 972.407 124.614C971.735 123.73 971.237 123.037 970.907 122.565C970.743 122.33 970.62 122.15 970.539 122.029C970.499 121.969 970.468 121.924 970.448 121.894C970.439 121.879 970.431 121.868 970.427 121.86C970.425 121.857 970.423 121.854 970.422 121.853L970.42 121.851L969.923 121.08L969.545 121.915L969.544 121.916C969.544 121.917 969.544 121.918 969.543 121.919C969.542 121.922 969.539 121.927 969.536 121.934C969.53 121.947 969.52 121.967 969.508 121.994C969.483 122.048 969.445 122.129 969.395 122.235C969.292 122.45 969.137 122.769 968.927 123.187C968.507 124.022 967.867 125.25 966.991 126.813C965.239 129.941 962.541 134.414 958.763 139.783C951.206 150.523 939.329 164.849 922.056 179.176C887.516 207.824 831.378 236.5 745 236.5C676.471 236.5 619.197 207.838 579.038 179.153C558.961 164.813 543.17 150.472 532.399 139.718C527.014 134.341 522.885 129.86 520.103 126.726C518.712 125.159 517.657 123.928 516.951 123.09C516.598 122.671 516.333 122.35 516.155 122.134C516.067 122.026 515.999 121.944 515.955 121.89C515.933 121.863 515.917 121.842 515.906 121.828C515.901 121.821 515.896 121.817 515.894 121.813C515.892 121.812 515.891 121.81 515.891 121.81C515.888 121.81 515.862 121.83 515.5 122.121L515.89 121.809L515.401 121.199L515.053 121.897V121.898L515.052 121.899L515.031 121.94C515.016 121.97 514.992 122.015 514.961 122.075C514.898 122.195 514.802 122.375 514.672 122.609C514.411 123.079 514.014 123.773 513.47 124.655C512.382 126.421 510.706 128.948 508.362 131.982C503.675 138.053 496.314 146.154 485.636 154.257C464.284 170.459 429.64 186.689 376.5 186.689C323.359 186.689 285.704 170.457 261.34 154.239C249.156 146.129 240.293 138.02 234.479 131.942C231.572 128.904 229.427 126.373 228.011 124.604C227.303 123.72 226.776 123.026 226.428 122.555C226.254 122.319 226.124 122.139 226.038 122.019C225.995 121.959 225.964 121.913 225.943 121.883C225.933 121.868 225.925 121.857 225.92 121.85C225.917 121.846 225.915 121.842 225.914 121.841L225.913 121.84V121.839L225.674 121.489L225.289 121.668C225.289 121.668 225.287 121.668 225.286 121.669C225.284 121.67 225.281 121.672 225.276 121.674L225.086 121.762C224.951 121.824 224.749 121.916 224.484 122.036C223.955 122.277 223.172 122.631 222.159 123.08C220.133 123.979 217.187 125.264 213.511 126.804C206.159 129.883 195.888 133.981 184.213 138.058C160.844 146.218 131.916 154.267 109.508 153.931C87.0932 153.594 59.7848 145.543 38.0449 137.554C27.1825 133.562 17.7237 129.59 10.9814 126.617C7.6109 125.131 4.91955 123.894 3.07129 123.029C2.14713 122.597 1.43314 122.258 0.951172 122.026C0.766286 121.938 0.615626 121.865 0.5 121.809V-191.5H1439.5Z" fill="#F7F9F9" stroke="#F7F9F9"/>
  </symbol>

  <symbol id="cloud-bottom" viewBox="0 0 1440 344">
    <path d="M0.5 428.5V115.085C0.554865 115.03 0.625366 114.959 0.712891 114.874C0.95202 114.642 1.31334 114.299 1.79785 113.861C2.76691 112.986 4.22926 111.733 6.19434 110.228C10.1249 107.216 16.0673 103.194 24.0986 99.1709C40.1596 91.1256 64.5836 83.0693 98 83.0693C131.417 83.0693 156.719 91.1263 173.66 99.1758C182.131 103.201 188.513 107.224 192.773 110.238C194.904 111.745 196.504 113.001 197.569 113.877C198.102 114.315 198.501 114.659 198.766 114.892C198.898 115.008 198.997 115.097 199.062 115.156C199.095 115.186 199.12 115.208 199.136 115.223C199.144 115.23 199.15 115.236 199.153 115.239C199.155 115.241 199.156 115.242 199.157 115.243H199.158L199.747 115.795L199.979 115.022L199.979 115.021C199.98 115.019 199.98 115.016 199.981 115.013C199.984 115.006 199.988 114.995 199.992 114.98C200.001 114.951 200.015 114.906 200.034 114.847C200.073 114.727 200.133 114.549 200.216 114.314C200.381 113.846 200.639 113.155 201.004 112.274C201.734 110.512 202.895 107.989 204.614 104.959C208.053 98.8979 213.725 90.8075 222.648 82.7148C240.486 66.5382 271.364 50.3105 323.5 50.3105C375.639 50.3105 412.166 66.5408 435.653 82.7559C447.399 90.8649 455.887 98.9724 461.436 105.049C464.21 108.087 466.249 110.618 467.593 112.386C468.265 113.27 468.763 113.963 469.093 114.435C469.257 114.67 469.38 114.85 469.461 114.971C469.501 115.031 469.532 115.076 469.552 115.106C469.561 115.121 469.569 115.132 469.573 115.14C469.575 115.143 469.577 115.146 469.578 115.147L469.58 115.149L470.077 115.92L470.455 115.085L470.456 115.084C470.456 115.083 470.456 115.082 470.457 115.081C470.458 115.078 470.461 115.073 470.464 115.066C470.47 115.053 470.48 115.033 470.492 115.006C470.517 114.952 470.555 114.871 470.605 114.765C470.708 114.55 470.863 114.231 471.073 113.813C471.493 112.978 472.133 111.75 473.009 110.187C474.761 107.059 477.459 102.586 481.237 97.2168C488.794 86.4771 500.671 72.1515 517.944 57.8242C552.484 29.1757 608.622 0.5 695 0.5C763.529 0.5 820.803 29.162 860.962 57.8467C881.039 72.1872 896.83 86.5275 907.601 97.2822C912.986 102.659 917.115 107.14 919.897 110.274C921.288 111.841 922.343 113.072 923.049 113.91C923.402 114.329 923.667 114.65 923.845 114.866C923.933 114.974 924.001 115.056 924.045 115.11C924.067 115.137 924.083 115.158 924.094 115.172C924.099 115.179 924.104 115.183 924.106 115.187C924.108 115.188 924.109 115.19 924.109 115.19C924.112 115.19 924.138 115.17 924.5 114.879L924.11 115.191L924.599 115.801L924.947 115.103V115.102L924.948 115.101L924.969 115.06C924.984 115.03 925.008 114.985 925.039 114.925C925.102 114.805 925.198 114.625 925.328 114.391C925.589 113.921 925.986 113.227 926.53 112.345C927.618 110.579 929.294 108.052 931.638 105.018C936.325 98.9475 943.686 90.8464 954.364 82.7432C975.716 66.5414 1010.36 50.3105 1063.5 50.3105C1116.64 50.3105 1154.3 66.5426 1178.66 82.7607C1190.84 90.8711 1199.71 98.9802 1205.52 105.058C1208.43 108.096 1210.57 110.627 1211.99 112.396C1212.7 113.28 1213.22 113.974 1213.57 114.445C1213.75 114.681 1213.88 114.861 1213.96 114.981C1214 115.041 1214.04 115.087 1214.06 115.117C1214.07 115.132 1214.08 115.143 1214.08 115.15C1214.08 115.154 1214.08 115.158 1214.09 115.159L1214.09 115.16V115.161L1214.33 115.511L1214.71 115.332C1214.71 115.332 1214.71 115.332 1214.71 115.331C1214.72 115.33 1214.72 115.328 1214.72 115.326L1214.91 115.238C1215.05 115.176 1215.25 115.084 1215.52 114.964C1216.05 114.723 1216.83 114.369 1217.84 113.92C1219.87 113.021 1222.81 111.736 1226.49 110.196C1233.84 107.117 1244.11 103.019 1255.79 98.9424C1279.16 90.7824 1308.08 82.7332 1330.49 83.0693C1352.91 83.4056 1380.22 91.4567 1401.96 99.4463C1412.82 103.438 1422.28 107.41 1429.02 110.383C1432.39 111.869 1435.08 113.106 1436.93 113.971C1437.85 114.403 1438.57 114.742 1439.05 114.974C1439.23 115.062 1439.38 115.135 1439.5 115.191V428.5H0.5Z" fill="currentColor" stroke="currentColor"/>
  </symbol>

<symbol id="crayon" viewBox="0 0 1440 1024">
<path d="M306 435.5C306 429.977 310.477 425.5 316 425.5H323V414C323 412.895 323.895 412 325 412H1028.5C1031.81 412 1034.5 414.686 1034.5 418V425.5C1034.5 425.5 1136.93 453.284 1189.21 486.569C1196.83 491.421 1197.07 501.85 1189.59 506.913C1141.68 539.338 1034.5 577.5 1034.5 577.5V584C1034.5 587.314 1031.81 590 1028.5 590H326C324.895 590 324 589.105 324 588V577.5H316C310.477 577.5 306 573.023 306 567.5V435.5Z" fill="#E8E273"/>
<path d="M324 415C324 413.895 324.895 413 326 413H1017C1018.1 413 1019 413.895 1019 415V588C1019 589.105 1018.1 590 1017 590H326C324.895 590 324 589.105 324 588V415Z" fill="#F5F543"/>
<path d="M324 416C324 414.343 325.343 413 327 413H347.558C349.906 413 351.547 415.67 350.739 417.875C346.256 430.12 339.118 465.411 373.013 523.5C387.264 554.485 384.091 580.21 382.683 587.756C382.433 589.093 381.255 590 379.895 590H327C325.343 590 324 588.657 324 587V416Z" fill="#283747"/>
<path d="M417 587C417 588.657 415.657 590 414 590H393.442C391.094 590 389.453 587.33 390.261 585.125C394.744 572.88 401.882 537.589 367.987 479.5C353.736 448.515 356.909 422.79 358.317 415.244C358.567 413.907 359.745 413 361.105 413H414C415.657 413 417 414.343 417 416V501.5V587Z" fill="#283747"/>
<path d="M1019 586C1019 587.657 1017.66 589 1016 589H995.442C993.094 589 991.453 586.33 992.261 584.125C996.744 571.88 1003.88 536.589 969.987 478.5C955.736 447.515 958.909 421.79 960.317 414.244C960.567 412.907 961.745 412 963.105 412H1016C1017.66 412 1019 413.343 1019 415V500.5V586Z" fill="#283747"/>
<path d="M922 415C922 413.343 923.343 412 925 412H945.558C947.906 412 949.547 414.67 948.739 416.875C944.256 429.12 937.118 464.411 971.013 522.5C985.264 553.485 982.091 579.21 980.683 586.756C980.433 588.093 979.255 589 977.895 589H925C923.343 589 922 587.657 922 586V500.5V415Z" fill="#283747"/>
</symbol>

</svg>