<svg xmlns="http://www.w3.org/2000/svg" style="display: none;">

<symbol id="cloud" viewBox="0 0 1440 237">
<path d="M0 -135H1440V115C1440 115 1390 177 1314.5 177C1239 177 1180.25 115 1180.25 115C1180.25 115 1139 177 1049 177C959 177 920.5 115 920.5 115C920.5 115 851.5 190.709 735 188C618.5 185.291 551.5 115 551.5 115C551.5 115 513 177 413 177C313 177 275.75 115 275.75 115C275.75 115 226.5 177 130 177C33.5 177 0 115 0 115V-135Z" fill="#F7F9F9"/>
  </symbol>

  <symbol id="cloud-bottom" viewBox="0 0 1440 205" >
<path d="M0 323.071H1440V73.071C1440 73.071 1390 11.071 1314.5 11.071C1239 11.071 1180.25 73.071 1180.25 73.071C1180.25 73.071 1139 11.071 1049 11.071C959 11.071 920.5 73.071 920.5 73.071C920.5 73.071 851.5 -2.63753 735 0.0710449C618.5 2.77962 551.5 73.071 551.5 73.071C551.5 73.071 513 11.071 413 11.071C313 11.071 275.75 73.071 275.75 73.071C275.75 73.071 226.5 11.071 130 11.071C33.5 11.071 0 73.071 0 73.071V323.071Z" fill="#F7F9F9"/>
  </symbol>

<symbol id="crayon" viewBox="0 0 1440 1024">

</symbol>

</svg>