<svg width="1440" height="237" viewBox="0 0 1440 237" fill="none" xmlns="http://www.w3.org/2000/svg">

<path d="M1439.5 -191.5V121.915C1439.45 121.97 1439.37 122.041 1439.29 122.126C1439.05 122.358 1438.69 122.701 1438.2 123.139C1437.23 124.014 1435.77 125.267 1433.81 126.772C1429.88 129.784 1423.93 133.806 1415.9 137.829C1399.84 145.874 1375.42 153.931 1342 153.931C1308.58 153.931 1283.28 145.874 1266.34 137.824C1257.87 133.799 1251.49 129.776 1247.23 126.762C1245.1 125.255 1243.5 123.999 1242.43 123.123C1241.9 122.685 1241.5 122.341 1241.23 122.108C1241.1 121.992 1241 121.903 1240.94 121.844C1240.9 121.814 1240.88 121.792 1240.86 121.777C1240.86 121.77 1240.85 121.764 1240.85 121.761C1240.84 121.759 1240.84 121.758 1240.84 121.757H1240.84L1240.25 121.205L1240.02 121.978L1240.02 121.979C1240.02 121.981 1240.02 121.984 1240.02 121.987C1240.02 121.994 1240.01 122.005 1240.01 122.02C1240 122.049 1239.99 122.094 1239.97 122.153C1239.93 122.273 1239.87 122.451 1239.78 122.686C1239.62 123.154 1239.36 123.845 1239 124.726C1238.27 126.488 1237.1 129.011 1235.39 132.041C1231.95 138.102 1226.28 146.192 1217.35 154.285C1199.51 170.462 1168.64 186.689 1116.5 186.689C1064.36 186.689 1027.83 170.459 1004.35 154.244C992.601 146.135 984.113 138.028 978.564 131.951C975.79 128.913 973.751 126.382 972.407 124.614C971.735 123.73 971.237 123.037 970.907 122.565C970.743 122.33 970.62 122.15 970.539 122.029C970.499 121.969 970.468 121.924 970.448 121.894C970.439 121.879 970.431 121.868 970.427 121.86C970.425 121.857 970.423 121.854 970.422 121.853L970.42 121.851L969.923 121.08L969.545 121.915L969.544 121.916C969.544 121.917 969.544 121.918 969.543 121.919C969.542 121.922 969.539 121.927 969.536 121.934C969.53 121.947 969.52 121.967 969.508 121.994C969.483 122.048 969.445 122.129 969.395 122.235C969.292 122.45 969.137 122.769 968.927 123.187C968.507 124.022 967.867 125.25 966.991 126.813C965.239 129.941 962.541 134.414 958.763 139.783C951.206 150.523 939.329 164.849 922.056 179.176C887.516 207.824 831.378 236.5 745 236.5C676.471 236.5 619.197 207.838 579.038 179.153C558.961 164.813 543.17 150.472 532.399 139.718C527.014 134.341 522.885 129.86 520.103 126.726C518.712 125.159 517.657 123.928 516.951 123.09C516.598 122.671 516.333 122.35 516.155 122.134C516.067 122.026 515.999 121.944 515.955 121.89C515.933 121.863 515.917 121.842 515.906 121.828C515.901 121.821 515.896 121.817 515.894 121.813C515.892 121.812 515.891 121.81 515.891 121.81C515.888 121.81 515.862 121.83 515.5 122.121L515.89 121.809L515.401 121.199L515.053 121.897V121.898L515.052 121.899L515.031 121.94C515.016 121.97 514.992 122.015 514.961 122.075C514.898 122.195 514.802 122.375 514.672 122.609C514.411 123.079 514.014 123.773 513.47 124.655C512.382 126.421 510.706 128.948 508.362 131.982C503.675 138.053 496.314 146.154 485.636 154.257C464.284 170.459 429.64 186.689 376.5 186.689C323.359 186.689 285.704 170.457 261.34 154.239C249.156 146.129 240.293 138.02 234.479 131.942C231.572 128.904 229.427 126.373 228.011 124.604C227.303 123.72 226.776 123.026 226.428 122.555C226.254 122.319 226.124 122.139 226.038 122.019C225.995 121.959 225.964 121.913 225.943 121.883C225.933 121.868 225.925 121.857 225.92 121.85C225.917 121.846 225.915 121.842 225.914 121.841L225.913 121.84V121.839L225.674 121.489L225.289 121.668C225.289 121.668 225.287 121.668 225.286 121.669C225.284 121.67 225.281 121.672 225.276 121.674L225.086 121.762C224.951 121.824 224.749 121.916 224.484 122.036C223.955 122.277 223.172 122.631 222.159 123.08C220.133 123.979 217.187 125.264 213.511 126.804C206.159 129.883 195.888 133.981 184.213 138.058C160.844 146.218 131.916 154.267 109.508 153.931C87.0932 153.594 59.7848 145.543 38.0449 137.554C27.1825 133.562 17.7237 129.59 10.9814 126.617C7.6109 125.131 4.91955 123.894 3.07129 123.029C2.14713 122.597 1.43314 122.258 0.951172 122.026C0.766286 121.938 0.615626 121.865 0.5 121.809V-191.5H1439.5Z" fill="#F7F9F9" stroke="#F7F9F9"/>
</svg>
