<svg width="1440" height="344" viewBox="0 0 1440 344" fill="none" xmlns="http://www.w3.org/2000/svg">

<path d="M0.5 428.5V115.085C0.554865 115.03 0.625366 114.959 0.712891 114.874C0.95202 114.642 1.31334 114.299 1.79785 113.861C2.76691 112.986 4.22926 111.733 6.19434 110.228C10.1249 107.216 16.0673 103.194 24.0986 99.1709C40.1596 91.1256 64.5836 83.0693 98 83.0693C131.417 83.0693 156.719 91.1263 173.66 99.1758C182.131 103.201 188.513 107.224 192.773 110.238C194.904 111.745 196.504 113.001 197.569 113.877C198.102 114.315 198.501 114.659 198.766 114.892C198.898 115.008 198.997 115.097 199.062 115.156C199.095 115.186 199.12 115.208 199.136 115.223C199.144 115.23 199.15 115.236 199.153 115.239C199.155 115.241 199.156 115.242 199.157 115.243H199.158L199.747 115.795L199.979 115.022L199.979 115.021C199.98 115.019 199.98 115.016 199.981 115.013C199.984 115.006 199.988 114.995 199.992 114.98C200.001 114.951 200.015 114.906 200.034 114.847C200.073 114.727 200.133 114.549 200.216 114.314C200.381 113.846 200.639 113.155 201.004 112.274C201.734 110.512 202.895 107.989 204.614 104.959C208.053 98.8979 213.725 90.8075 222.648 82.7148C240.486 66.5382 271.364 50.3105 323.5 50.3105C375.639 50.3105 412.166 66.5408 435.653 82.7559C447.399 90.8649 455.887 98.9724 461.436 105.049C464.21 108.087 466.249 110.618 467.593 112.386C468.265 113.27 468.763 113.963 469.093 114.435C469.257 114.67 469.38 114.85 469.461 114.971C469.501 115.031 469.532 115.076 469.552 115.106C469.561 115.121 469.569 115.132 469.573 115.14C469.575 115.143 469.577 115.146 469.578 115.147L469.58 115.149L470.077 115.92L470.455 115.085L470.456 115.084C470.456 115.083 470.456 115.082 470.457 115.081C470.458 115.078 470.461 115.073 470.464 115.066C470.47 115.053 470.48 115.033 470.492 115.006C470.517 114.952 470.555 114.871 470.605 114.765C470.708 114.55 470.863 114.231 471.073 113.813C471.493 112.978 472.133 111.75 473.009 110.187C474.761 107.059 477.459 102.586 481.237 97.2168C488.794 86.4771 500.671 72.1515 517.944 57.8242C552.484 29.1757 608.622 0.5 695 0.5C763.529 0.5 820.803 29.162 860.962 57.8467C881.039 72.1872 896.83 86.5275 907.601 97.2822C912.986 102.659 917.115 107.14 919.897 110.274C921.288 111.841 922.343 113.072 923.049 113.91C923.402 114.329 923.667 114.65 923.845 114.866C923.933 114.974 924.001 115.056 924.045 115.11C924.067 115.137 924.083 115.158 924.094 115.172C924.099 115.179 924.104 115.183 924.106 115.187C924.108 115.188 924.109 115.19 924.109 115.19C924.112 115.19 924.138 115.17 924.5 114.879L924.11 115.191L924.599 115.801L924.947 115.103V115.102L924.948 115.101L924.969 115.06C924.984 115.03 925.008 114.985 925.039 114.925C925.102 114.805 925.198 114.625 925.328 114.391C925.589 113.921 925.986 113.227 926.53 112.345C927.618 110.579 929.294 108.052 931.638 105.018C936.325 98.9475 943.686 90.8464 954.364 82.7432C975.716 66.5414 1010.36 50.3105 1063.5 50.3105C1116.64 50.3105 1154.3 66.5426 1178.66 82.7607C1190.84 90.8711 1199.71 98.9802 1205.52 105.058C1208.43 108.096 1210.57 110.627 1211.99 112.396C1212.7 113.28 1213.22 113.974 1213.57 114.445C1213.75 114.681 1213.88 114.861 1213.96 114.981C1214 115.041 1214.04 115.087 1214.06 115.117C1214.07 115.132 1214.08 115.143 1214.08 115.15C1214.08 115.154 1214.08 115.158 1214.09 115.159L1214.09 115.16V115.161L1214.33 115.511L1214.71 115.332C1214.71 115.332 1214.71 115.332 1214.71 115.331C1214.72 115.33 1214.72 115.328 1214.72 115.326L1214.91 115.238C1215.05 115.176 1215.25 115.084 1215.52 114.964C1216.05 114.723 1216.83 114.369 1217.84 113.92C1219.87 113.021 1222.81 111.736 1226.49 110.196C1233.84 107.117 1244.11 103.019 1255.79 98.9424C1279.16 90.7824 1308.08 82.7332 1330.49 83.0693C1352.91 83.4056 1380.22 91.4567 1401.96 99.4463C1412.82 103.438 1422.28 107.41 1429.02 110.383C1432.39 111.869 1435.08 113.106 1436.93 113.971C1437.85 114.403 1438.57 114.742 1439.05 114.974C1439.23 115.062 1439.38 115.135 1439.5 115.191V428.5H0.5Z" fill="#F7F9F9" stroke="#F7F9F9"/>
</svg>
