<svg xmlns="http://www.w3.org/2000/svg" style="display: none;">

<symbol id="cloud" viewBox="0 0 1440 237">
<path d="M0 -135H1440V115C1440 115 1390 177 1314.5 177C1239 177 1180.25 115 1180.25 115C1180.25 115 1139 177 1049 177C959 177 920.5 115 920.5 115C920.5 115 851.5 190.709 735 188C618.5 185.291 551.5 115 551.5 115C551.5 115 513 177 413 177C313 177 275.75 115 275.75 115C275.75 115 226.5 177 130 177C33.5 177 0 115 0 115V-135Z" fill="#F7F9F9"/>
  </symbol>

  <symbol id="cloud-bottom" viewBox="0 0 1440 205" >
<path d="M0 323.071H1440V73.071C1440 73.071 1390 11.071 1314.5 11.071C1239 11.071 1180.25 73.071 1180.25 73.071C1180.25 73.071 1139 11.071 1049 11.071C959 11.071 920.5 73.071 920.5 73.071C920.5 73.071 851.5 -2.63753 735 0.0710449C618.5 2.77962 551.5 73.071 551.5 73.071C551.5 73.071 513 11.071 413 11.071C313 11.071 275.75 73.071 275.75 73.071C275.75 73.071 226.5 11.071 130 11.071C33.5 11.071 0 73.071 0 73.071V323.071Z" fill="#F7F9F9"/>
  </symbol>

<symbol id="folder" viewBox="0 0 250 150">
<path d="M0 32.8553C0 30.0938 2.23858 27.8553 5 27.8553H71.7213H137.807H161.885V9.99999C161.885 4.47714 166.362 0 171.885 0H239.145C245.14 0 250 4.86007 250 10.8553V10.8553V145C250 147.761 247.761 150 245 150H5C2.23857 150 0 147.761 0 145V32.8553Z fill="#F7F9F9"/>
</symbol>

<symbol id="location" viewBox="0 0 24 24">
<path fill"#f7f9f9" d="M12,2c-4.2,0-8,3.22-8,8.2c0,3.18,2.45,6.92,7.34,11.23c0.38,0.33,0.95,0.33,1.33,0C17.55,17.12,20,13.38,20,10.2 C20,5.22,16.2,2,12,2z M12,12c-1.1,0-2-0.9-2-2c0-1.1,0.9-2,2-2c1.1,0,2,0.9,2,2C14,11.1,13.1,12,12,12z">
</symbol>

</svg>